<?xml version="1.0" encoding="utf-8"?>
<!-- Generator: Adobe Illustrator 23.1.0, SVG Export Plug-In . SVG Version: 6.00 Build 0)  -->
<svg version="1.1" id="Layer_1" xmlns="http://www.w3.org/2000/svg" xmlns:xlink="http://www.w3.org/1999/xlink" x="0px" y="0px"
	 viewBox="0 0 200 35.3" style="enable-background:new 0 0 200 35.3;" xml:space="preserve">
<style type="text/css">
	.st0{fill:#FFFFFF;}
</style>
<g>
	<path class="st0" d="M9.37,8.91H5.09v13.73c0,0.79,0.09,1.41,0.27,1.87c0.18,0.46,0.45,0.81,0.82,1.05
		c0.37,0.24,0.82,0.39,1.34,0.44c0.52,0.05,1.13,0.06,1.82,0.04v1.26c-0.74,0.05-1.46,0.04-2.16-0.02c-0.7-0.06-1.32-0.25-1.85-0.57
		c-0.54-0.32-0.96-0.8-1.28-1.43c-0.32-0.64-0.45-1.52-0.4-2.64V8.91H0V7.65h3.63V1.53h1.45v6.12h4.28V8.91z"/>
	<path class="st0" d="M9.67,7.65h1.72l7.3,17.94l6.73-17.94h1.64l-8.41,21.76c-0.41,0.97-0.78,1.8-1.13,2.5
		c-0.34,0.7-0.73,1.22-1.17,1.55c-0.51,0.41-1.12,0.66-1.82,0.75c-0.7,0.09-1.63,0.13-2.77,0.13v-1.26c1.05,0,1.86-0.08,2.45-0.25
		c0.59-0.17,1.13-0.5,1.64-1.01c0.28-0.28,0.57-0.8,0.88-1.55c0.31-0.75,0.69-1.78,1.15-3.08L9.67,7.65z"/>
	<path class="st0" d="M30.78,12.16h0.11c0.15-0.48,0.41-1.02,0.76-1.61c0.36-0.59,0.83-1.13,1.41-1.62c0.59-0.5,1.29-0.91,2.12-1.24
		c0.83-0.33,1.78-0.5,2.85-0.5c1.5,0,2.81,0.28,3.92,0.84c1.11,0.56,2.03,1.31,2.75,2.26c0.73,0.94,1.27,2.04,1.63,3.29
		c0.36,1.25,0.54,2.56,0.54,3.94c0,1.5-0.18,2.88-0.54,4.13c-0.36,1.25-0.9,2.33-1.63,3.23c-0.73,0.91-1.65,1.61-2.76,2.12
		c-1.11,0.51-2.42,0.76-3.93,0.76c-1.64,0-3.09-0.36-4.37-1.07c-1.28-0.71-2.21-1.87-2.8-3.48h-0.08l0,11.13h-1.41V7.65h1.41V12.16z
		 M38.03,26.5c1.28,0,2.38-0.24,3.32-0.73c0.93-0.48,1.7-1.13,2.3-1.95c0.6-0.82,1.05-1.77,1.34-2.85c0.29-1.08,0.44-2.24,0.44-3.46
		c0-1.12-0.14-2.22-0.42-3.31c-0.28-1.08-0.72-2.05-1.3-2.91c-0.59-0.85-1.35-1.54-2.28-2.07c-0.93-0.52-2.06-0.78-3.39-0.78
		c-1.3,0-2.42,0.26-3.34,0.77c-0.92,0.51-1.67,1.19-2.24,2.03c-0.58,0.84-0.99,1.8-1.25,2.89c-0.26,1.08-0.38,2.21-0.38,3.38
		c0,1.17,0.11,2.3,0.34,3.38c0.23,1.08,0.62,2.04,1.17,2.87c0.55,0.83,1.29,1.49,2.22,1.99C35.49,26.25,36.65,26.5,38.03,26.5"/>
	<path class="st0" d="M50.82,17.67v0.23c0,1.15,0.15,2.24,0.46,3.29c0.31,1.05,0.76,1.96,1.36,2.75c0.6,0.79,1.35,1.41,2.26,1.87
		c0.91,0.46,1.96,0.69,3.16,0.69c1.97,0,3.53-0.52,4.68-1.55c1.15-1.03,1.94-2.47,2.38-4.3h1.45c-0.43,2.29-1.37,4.05-2.81,5.28
		c-1.44,1.22-3.35,1.84-5.72,1.84c-1.45,0-2.72-0.26-3.81-0.78c-1.08-0.52-1.99-1.24-2.72-2.14c-0.73-0.9-1.27-1.98-1.63-3.21
		c-0.36-1.24-0.54-2.57-0.54-4c0-1.38,0.18-2.7,0.55-3.96c0.37-1.26,0.92-2.37,1.66-3.33c0.74-0.96,1.66-1.72,2.77-2.29
		c1.11-0.57,2.42-0.86,3.92-0.86c1.38,0,2.59,0.26,3.65,0.76c1.06,0.51,1.94,1.2,2.66,2.08c0.71,0.88,1.26,1.9,1.63,3.06
		c0.37,1.16,0.55,2.4,0.55,3.73c0,0.13-0.01,0.27-0.02,0.44c-0.01,0.17-0.02,0.3-0.02,0.4H50.82z M65.28,16.41
		c-0.05-1.07-0.23-2.08-0.54-3.04c-0.31-0.96-0.76-1.8-1.36-2.52c-0.6-0.73-1.33-1.31-2.19-1.74c-0.86-0.43-1.83-0.65-2.93-0.65
		c-1.18,0-2.21,0.22-3.11,0.67c-0.9,0.45-1.65,1.03-2.26,1.76c-0.61,0.73-1.09,1.57-1.42,2.54s-0.54,1.96-0.61,2.98H65.28z"/>
	<path class="st0" d="M84.86,27.3v-2.68h-0.08c-0.54,1.1-1.38,1.89-2.52,2.37c-1.15,0.48-2.41,0.73-3.79,0.73
		c-1.53,0-2.86-0.28-4-0.84c-1.13-0.56-2.08-1.31-2.83-2.26c-0.75-0.94-1.32-2.04-1.7-3.29c-0.38-1.25-0.57-2.58-0.57-3.98
		c0-1.4,0.18-2.73,0.55-3.98c0.37-1.25,0.93-2.34,1.68-3.27c0.75-0.93,1.7-1.67,2.83-2.22c1.13-0.55,2.45-0.82,3.96-0.82
		c0.51,0,1.06,0.05,1.64,0.15c0.59,0.1,1.17,0.27,1.76,0.52c0.59,0.24,1.14,0.56,1.66,0.96c0.52,0.4,0.96,0.89,1.32,1.47h0.08V0
		h3.25v27.3H84.86z M73.17,20.29c0.24,0.88,0.61,1.66,1.11,2.35c0.5,0.69,1.13,1.24,1.91,1.64c0.78,0.41,1.69,0.61,2.73,0.61
		c1.1,0,2.03-0.22,2.79-0.65c0.76-0.43,1.39-1,1.87-1.7c0.48-0.7,0.83-1.5,1.05-2.39c0.22-0.89,0.33-1.8,0.33-2.72
		c0-0.97-0.11-1.91-0.34-2.81c-0.23-0.9-0.59-1.7-1.09-2.39c-0.5-0.69-1.14-1.24-1.93-1.66c-0.79-0.42-1.75-0.63-2.87-0.63
		c-1.1,0-2.03,0.22-2.79,0.65c-0.76,0.43-1.38,1.01-1.84,1.72c-0.46,0.71-0.79,1.53-0.99,2.45c-0.2,0.92-0.31,1.86-0.31,2.83
		C72.81,18.51,72.93,19.41,73.17,20.29"/>
	<path class="st0" d="M107.11,26.04c-1.48,1.12-3.34,1.68-5.58,1.68c-1.58,0-2.95-0.26-4.11-0.77c-1.16-0.51-2.14-1.22-2.93-2.14
		c-0.79-0.92-1.38-2.01-1.78-3.29c-0.4-1.27-0.62-2.66-0.67-4.17c0-1.5,0.23-2.88,0.69-4.13c0.46-1.25,1.1-2.33,1.93-3.25
		c0.83-0.92,1.81-1.63,2.94-2.14c1.13-0.51,2.38-0.76,3.73-0.76c1.76,0,3.22,0.36,4.38,1.09c1.16,0.73,2.09,1.65,2.79,2.77
		c0.7,1.12,1.19,2.35,1.45,3.67c0.27,1.33,0.38,2.59,0.33,3.79h-14.8c-0.03,0.87,0.08,1.69,0.31,2.47c0.23,0.78,0.6,1.47,1.11,2.07
		c0.51,0.6,1.16,1.08,1.95,1.43c0.79,0.36,1.72,0.54,2.79,0.54c1.38,0,2.5-0.32,3.38-0.96c0.88-0.64,1.46-1.61,1.74-2.91h3.21
		C109.55,23.25,108.59,24.92,107.11,26.04 M106.33,13.35c-0.29-0.69-0.69-1.28-1.19-1.78s-1.08-0.89-1.76-1.19
		c-0.68-0.29-1.42-0.44-2.24-0.44c-0.84,0-1.6,0.15-2.28,0.44c-0.68,0.29-1.26,0.69-1.74,1.2c-0.48,0.51-0.87,1.1-1.15,1.78
		c-0.28,0.68-0.45,1.4-0.5,2.16h11.36C106.79,14.76,106.62,14.03,106.33,13.35"/>
	<path class="st0" d="M116.14,22.89c0.31,0.5,0.71,0.89,1.2,1.19c0.5,0.29,1.06,0.5,1.68,0.63c0.62,0.13,1.27,0.19,1.93,0.19
		c0.51,0,1.05-0.04,1.61-0.11c0.56-0.08,1.08-0.22,1.55-0.42c0.47-0.2,0.86-0.5,1.17-0.9c0.31-0.39,0.46-0.9,0.46-1.51
		c0-0.84-0.32-1.48-0.96-1.91c-0.64-0.43-1.43-0.78-2.39-1.05c-0.96-0.27-2-0.51-3.12-0.73c-1.12-0.22-2.16-0.52-3.12-0.92
		c-0.96-0.39-1.75-0.95-2.39-1.66c-0.64-0.71-0.96-1.71-0.96-2.98c0-0.99,0.22-1.85,0.67-2.56c0.45-0.71,1.02-1.29,1.72-1.74
		c0.7-0.45,1.49-0.78,2.37-0.99c0.88-0.22,1.75-0.33,2.62-0.33c1.12,0,2.15,0.1,3.1,0.29c0.94,0.19,1.78,0.52,2.5,0.99
		c0.73,0.47,1.31,1.11,1.74,1.91c0.43,0.8,0.69,1.8,0.76,3h-3.25c-0.05-0.64-0.22-1.17-0.5-1.59c-0.28-0.42-0.64-0.76-1.07-1.01
		c-0.43-0.25-0.91-0.44-1.43-0.55c-0.52-0.11-1.05-0.17-1.59-0.17c-0.48,0-0.98,0.04-1.47,0.11c-0.5,0.08-0.95,0.21-1.36,0.4
		c-0.41,0.19-0.74,0.45-0.99,0.76c-0.25,0.32-0.38,0.73-0.38,1.24c0,0.56,0.2,1.03,0.59,1.4c0.39,0.37,0.9,0.68,1.51,0.92
		c0.61,0.24,1.3,0.45,2.07,0.61c0.76,0.17,1.53,0.34,2.29,0.52c0.82,0.18,1.61,0.4,2.39,0.65c0.78,0.26,1.47,0.59,2.07,1.01
		c0.6,0.42,1.08,0.95,1.45,1.59c0.37,0.64,0.55,1.43,0.55,2.37c0,1.2-0.25,2.19-0.75,2.98c-0.5,0.79-1.15,1.43-1.95,1.91
		c-0.8,0.48-1.71,0.82-2.72,1.01c-1.01,0.19-2.01,0.29-3,0.29c-1.1,0-2.14-0.11-3.14-0.34c-0.99-0.23-1.87-0.6-2.64-1.13
		c-0.76-0.52-1.38-1.21-1.84-2.07c-0.46-0.85-0.71-1.89-0.77-3.12h3.25C115.67,21.79,115.83,22.39,116.14,22.89"/>
	<path class="st0" d="M132.96,0h3.25v3.98h-3.25V0z M136.21,27.3h-3.25V7.53h3.25V27.3z"/>
	<path class="st0" d="M156.1,32.89c-1.48,1.61-3.8,2.41-6.96,2.41c-0.92,0-1.85-0.1-2.81-0.31c-0.96-0.2-1.82-0.54-2.6-0.99
		c-0.78-0.46-1.42-1.06-1.93-1.8c-0.51-0.74-0.79-1.64-0.84-2.72h3.25c0.03,0.59,0.21,1.08,0.55,1.49c0.34,0.41,0.76,0.74,1.26,0.99
		c0.5,0.25,1.04,0.44,1.63,0.55c0.59,0.11,1.15,0.17,1.68,0.17c1.07,0,1.98-0.19,2.72-0.55c0.74-0.37,1.35-0.88,1.84-1.53
		c0.48-0.65,0.83-1.43,1.05-2.35c0.22-0.92,0.33-1.92,0.33-3.02v-1.3h-0.08c-0.56,1.22-1.41,2.12-2.54,2.7
		c-1.13,0.57-2.34,0.86-3.61,0.86c-1.48,0-2.77-0.27-3.86-0.8c-1.1-0.54-2.01-1.26-2.75-2.16c-0.74-0.9-1.29-1.96-1.66-3.17
		c-0.37-1.21-0.55-2.49-0.55-3.84c0-1.17,0.15-2.38,0.46-3.61c0.31-1.24,0.82-2.36,1.53-3.37c0.71-1.01,1.66-1.84,2.83-2.49
		c1.17-0.65,2.61-0.98,4.32-0.98c1.25,0,2.4,0.27,3.44,0.82c1.05,0.55,1.86,1.37,2.45,2.47h0.04V7.53h3.06v18.09
		C158.32,28.86,157.58,31.28,156.1,32.89 M151.95,24c0.75-0.45,1.36-1.03,1.82-1.76c0.46-0.73,0.8-1.55,1.01-2.47
		c0.22-0.92,0.33-1.84,0.33-2.75c0-0.87-0.1-1.72-0.31-2.56c-0.2-0.84-0.53-1.6-0.98-2.28c-0.45-0.68-1.03-1.22-1.74-1.63
		c-0.71-0.41-1.58-0.61-2.6-0.61c-1.05,0-1.94,0.2-2.68,0.59c-0.74,0.4-1.35,0.92-1.82,1.59c-0.47,0.66-0.82,1.43-1.03,2.29
		c-0.22,0.87-0.33,1.77-0.33,2.72c0,0.89,0.09,1.78,0.27,2.68c0.18,0.89,0.48,1.7,0.92,2.43c0.43,0.73,1.01,1.31,1.72,1.76
		c0.71,0.45,1.61,0.67,2.68,0.67S151.2,24.44,151.95,24"/>
	<path class="st0" d="M166.27,7.53v3.14h0.08c1.35-2.4,3.49-3.59,6.42-3.59c1.3,0,2.38,0.18,3.25,0.54c0.87,0.36,1.57,0.85,2.1,1.49
		c0.54,0.64,0.91,1.4,1.13,2.28c0.22,0.88,0.33,1.85,0.33,2.93v13h-3.25V13.92c0-1.22-0.36-2.19-1.07-2.91
		c-0.71-0.71-1.7-1.07-2.94-1.07c-0.99,0-1.85,0.15-2.58,0.46c-0.73,0.31-1.33,0.74-1.82,1.3c-0.48,0.56-0.85,1.22-1.09,1.97
		c-0.24,0.75-0.36,1.57-0.36,2.47V27.3h-3.25V7.53H166.27z"/>
	<path class="st0" d="M186.96,22.89c0.31,0.5,0.71,0.89,1.2,1.19c0.5,0.29,1.06,0.5,1.68,0.63c0.62,0.13,1.27,0.19,1.93,0.19
		c0.51,0,1.05-0.04,1.61-0.11c0.56-0.08,1.08-0.22,1.55-0.42c0.47-0.2,0.86-0.5,1.17-0.9c0.31-0.39,0.46-0.9,0.46-1.51
		c0-0.84-0.32-1.48-0.96-1.91c-0.64-0.43-1.43-0.78-2.39-1.05c-0.96-0.27-2-0.51-3.12-0.73c-1.12-0.22-2.16-0.52-3.12-0.92
		c-0.96-0.39-1.75-0.95-2.39-1.66c-0.64-0.71-0.96-1.71-0.96-2.98c0-0.99,0.22-1.85,0.67-2.56c0.45-0.71,1.02-1.29,1.72-1.74
		c0.7-0.45,1.49-0.78,2.37-0.99c0.88-0.22,1.75-0.33,2.62-0.33c1.12,0,2.15,0.1,3.1,0.29c0.94,0.19,1.78,0.52,2.5,0.99
		c0.73,0.47,1.31,1.11,1.74,1.91c0.43,0.8,0.69,1.8,0.76,3h-3.25c-0.05-0.64-0.22-1.17-0.5-1.59c-0.28-0.42-0.64-0.76-1.07-1.01
		c-0.43-0.25-0.91-0.44-1.43-0.55c-0.52-0.11-1.05-0.17-1.59-0.17c-0.48,0-0.98,0.04-1.47,0.11c-0.5,0.08-0.95,0.21-1.36,0.4
		c-0.41,0.19-0.74,0.45-0.99,0.76c-0.25,0.32-0.38,0.73-0.38,1.24c0,0.56,0.2,1.03,0.59,1.4c0.39,0.37,0.9,0.68,1.51,0.92
		c0.61,0.24,1.3,0.45,2.07,0.61c0.76,0.17,1.53,0.34,2.29,0.52c0.82,0.18,1.61,0.4,2.39,0.65c0.78,0.26,1.47,0.59,2.07,1.01
		c0.6,0.42,1.08,0.95,1.45,1.59c0.37,0.64,0.55,1.43,0.55,2.37c0,1.2-0.25,2.19-0.75,2.98c-0.5,0.79-1.15,1.43-1.95,1.91
		c-0.8,0.48-1.71,0.82-2.72,1.01c-1.01,0.19-2.01,0.29-3,0.29c-1.1,0-2.14-0.11-3.14-0.34c-0.99-0.23-1.87-0.6-2.64-1.13
		c-0.76-0.52-1.38-1.21-1.84-2.07c-0.46-0.85-0.71-1.89-0.77-3.12h3.25C186.49,21.79,186.65,22.39,186.96,22.89"/>
</g>
</svg>
