<svg id="Layer_1" data-name="Layer 1" xmlns="http://www.w3.org/2000/svg" viewBox="0 0 300 52.95"><defs><style>.cls-1{fill:#fff;}</style></defs><title>typedesigns-white</title><path class="cls-1" d="M14.05,13.37H7.63V34A7.94,7.94,0,0,0,8,36.77a3.28,3.28,0,0,0,1.23,1.58,4.51,4.51,0,0,0,2,.66,21.61,21.61,0,0,0,2.73.05V41a21.82,21.82,0,0,1-3.24,0A6.58,6.58,0,0,1,8,40.07a5.12,5.12,0,0,1-1.92-2.15,8.1,8.1,0,0,1-.6-4V13.37H0v-1.9H5.45V2.29H7.63v9.18h6.42Z"/><path class="cls-1" d="M14.51,11.47h2.58l11,26.91,10.1-26.91h2.46L28,44.11c-.61,1.45-1.17,2.71-1.69,3.76a6.5,6.5,0,0,1-1.75,2.32,5.34,5.34,0,0,1-2.72,1.12,35.33,35.33,0,0,1-4.16.2V49.62a14.57,14.57,0,0,0,3.67-.37,5.69,5.69,0,0,0,2.46-1.52,7.14,7.14,0,0,0,1.32-2.33c.46-1.13,1-2.66,1.72-4.62Z"/><path class="cls-1" d="M46.18,18.24h.17a11.65,11.65,0,0,1,1.14-2.41,10.29,10.29,0,0,1,2.13-2.44,11.69,11.69,0,0,1,3.18-1.86,11.37,11.37,0,0,1,4.27-.75A12.87,12.87,0,0,1,63,12.05a11.89,11.89,0,0,1,4.13,3.38,14.5,14.5,0,0,1,2.44,4.93,21.3,21.3,0,0,1,.8,5.91,22.38,22.38,0,0,1-.8,6.2,13.63,13.63,0,0,1-2.44,4.84,11.4,11.4,0,0,1-4.14,3.19A14.14,14.14,0,0,1,57,41.65,13.19,13.19,0,0,1,50.49,40a9.36,9.36,0,0,1-4.2-5.22h-.11V51.51H44.05v-40h2.13ZM57.05,39.75a10.62,10.62,0,0,0,5-1.09,9.79,9.79,0,0,0,3.45-2.92,12.81,12.81,0,0,0,2-4.28,20.29,20.29,0,0,0,0-10.15,13.71,13.71,0,0,0-2-4.36A10.92,10.92,0,0,0,52,13.82a9.74,9.74,0,0,0-3.36,3,12.67,12.67,0,0,0-1.87,4.34,21.59,21.59,0,0,0-.58,5.07,24.11,24.11,0,0,0,.52,5.08,12.32,12.32,0,0,0,1.75,4.3,9,9,0,0,0,3.34,3,10.91,10.91,0,0,0,5.21,1.12"/><path class="cls-1" d="M76.23,26.5v.35a17.43,17.43,0,0,0,.69,4.93,12.67,12.67,0,0,0,2,4.13,9.89,9.89,0,0,0,3.4,2.81,10.34,10.34,0,0,0,4.74,1,10.11,10.11,0,0,0,7-2.32A12.19,12.19,0,0,0,97.69,31h2.18a13.17,13.17,0,0,1-4.22,7.91,12.78,12.78,0,0,1-8.58,2.76,13,13,0,0,1-5.7-1.18,11.64,11.64,0,0,1-4.08-3.21,13.6,13.6,0,0,1-2.43-4.82,21.38,21.38,0,0,1-.81-6,20.78,20.78,0,0,1,.84-5.93,14.71,14.71,0,0,1,2.49-5,12.47,12.47,0,0,1,4.16-3.45,13.84,13.84,0,0,1,11.36-.14,11.57,11.57,0,0,1,4,3.13,13.84,13.84,0,0,1,2.44,4.59,18.13,18.13,0,0,1,.83,5.59q0,.29,0,.66c0,.25,0,.45,0,.6Zm21.69-1.89a17.7,17.7,0,0,0-.81-4.56,11.26,11.26,0,0,0-2-3.79,10.09,10.09,0,0,0-3.28-2.61,9.59,9.59,0,0,0-4.4-1,10.31,10.31,0,0,0-4.66,1,10.55,10.55,0,0,0-3.39,2.64,11.81,11.81,0,0,0-2.13,3.81,18.12,18.12,0,0,0-.92,4.48Z"/><path class="cls-1" d="M127.29,41v-4h-.12a7.14,7.14,0,0,1-3.79,3.56,14.54,14.54,0,0,1-5.67,1.09,13.4,13.4,0,0,1-6-1.26,12.32,12.32,0,0,1-4.24-3.39A14.82,14.82,0,0,1,104.91,32a20.42,20.42,0,0,1-.86-6,20.69,20.69,0,0,1,.84-6,13.94,13.94,0,0,1,2.52-4.91,12.23,12.23,0,0,1,4.24-3.32,13.42,13.42,0,0,1,5.94-1.24,14.75,14.75,0,0,1,2.47.23,12,12,0,0,1,2.64.78,11.07,11.07,0,0,1,2.49,1.43,8,8,0,0,1,2,2.21h.12V0h4.87V41ZM109.76,30.43A10.94,10.94,0,0,0,111.42,34a8.37,8.37,0,0,0,2.87,2.47,8.76,8.76,0,0,0,4.1.91,8,8,0,0,0,7-3.52A10.79,10.79,0,0,0,127,30.23a17.5,17.5,0,0,0,.49-4.07,16.82,16.82,0,0,0-.52-4.22,10.39,10.39,0,0,0-1.63-3.58,8.37,8.37,0,0,0-2.9-2.5,9.07,9.07,0,0,0-4.3-.95,8.38,8.38,0,0,0-4.19,1,7.67,7.67,0,0,0-2.75,2.58,11.11,11.11,0,0,0-1.49,3.67,19.29,19.29,0,0,0-.46,4.25,15.3,15.3,0,0,0,.54,4"/><path class="cls-1" d="M160.67,39.06a13.43,13.43,0,0,1-8.38,2.53,15.12,15.12,0,0,1-6.16-1.15,12,12,0,0,1-4.39-3.21,13.57,13.57,0,0,1-2.67-4.93,23.71,23.71,0,0,1-1-6.26,17.79,17.79,0,0,1,1-6.19A14.71,14.71,0,0,1,142,15a13,13,0,0,1,4.41-3.21,13.46,13.46,0,0,1,5.6-1.15,12.17,12.17,0,0,1,6.57,1.64,12.88,12.88,0,0,1,4.18,4.16,16.37,16.37,0,0,1,2.18,5.5,23.52,23.52,0,0,1,.49,5.68h-22.2a11.82,11.82,0,0,0,.46,3.7,8.37,8.37,0,0,0,1.66,3.1,8.27,8.27,0,0,0,2.93,2.15,10,10,0,0,0,4.19.8,8.4,8.4,0,0,0,5.07-1.43,6.94,6.94,0,0,0,2.61-4.36H165a11.81,11.81,0,0,1-4.3,7.51m-1.18-19a8.52,8.52,0,0,0-1.77-2.67,8.65,8.65,0,0,0-2.64-1.78,9,9,0,0,0-6.77,0,7.83,7.83,0,0,0-2.61,1.81A8.68,8.68,0,0,0,144,20.05a10.23,10.23,0,0,0-.75,3.24h17a10,10,0,0,0-.78-3.27"/><path class="cls-1" d="M174.21,34.33a5.11,5.11,0,0,0,1.8,1.78,8.14,8.14,0,0,0,2.53,1,14.45,14.45,0,0,0,2.89.28,17,17,0,0,0,2.41-.17,8.59,8.59,0,0,0,2.33-.63,4.4,4.4,0,0,0,1.75-1.35,3.64,3.64,0,0,0,.68-2.26,3.23,3.23,0,0,0-1.43-2.87,12.23,12.23,0,0,0-3.58-1.58c-1.44-.4-3-.76-4.68-1.09A23.64,23.64,0,0,1,174.23,26a9.61,9.61,0,0,1-3.58-2.49A6.46,6.46,0,0,1,169.22,19a7.09,7.09,0,0,1,1-3.84,8.24,8.24,0,0,1,2.58-2.61,12,12,0,0,1,3.56-1.49,16.65,16.65,0,0,1,3.93-.49,23.85,23.85,0,0,1,4.64.43,10.93,10.93,0,0,1,3.76,1.49,7.78,7.78,0,0,1,2.61,2.87,11,11,0,0,1,1.15,4.5h-4.88a5,5,0,0,0-.74-2.38A5.08,5.08,0,0,0,185.22,16a7.34,7.34,0,0,0-2.15-.83,11.27,11.27,0,0,0-2.38-.26,13.91,13.91,0,0,0-2.21.18,7.14,7.14,0,0,0-2,.6A4.11,4.11,0,0,0,175,16.84a2.89,2.89,0,0,0-.57,1.86,2.71,2.71,0,0,0,.89,2.09,7,7,0,0,0,2.26,1.38,20.39,20.39,0,0,0,3.1.92l3.44.77c1.23.27,2.42.6,3.59,1a11.78,11.78,0,0,1,3.1,1.52,7.39,7.39,0,0,1,2.17,2.38,6.92,6.92,0,0,1,.84,3.56,8.32,8.32,0,0,1-1.12,4.47,8.74,8.74,0,0,1-2.93,2.87,12.39,12.39,0,0,1-4.07,1.52,24.66,24.66,0,0,1-4.5.43,20.54,20.54,0,0,1-4.71-.52,11.44,11.44,0,0,1-3.95-1.69,8.62,8.62,0,0,1-2.76-3.1,10.75,10.75,0,0,1-1.15-4.67h4.88a5.46,5.46,0,0,0,.75,2.72"/><path class="cls-1" d="M199.45,0h4.87V6h-4.87Zm4.87,41h-4.87V11.3h4.87Z"/><path class="cls-1" d="M234.15,49.33q-3.33,3.62-10.44,3.62a20.64,20.64,0,0,1-4.22-.46,13.33,13.33,0,0,1-3.9-1.49,9.1,9.1,0,0,1-2.89-2.7,7.67,7.67,0,0,1-1.27-4.07h4.88a3.57,3.57,0,0,0,.83,2.23A6,6,0,0,0,219,48a9.26,9.26,0,0,0,2.44.84A13.3,13.3,0,0,0,224,49a9,9,0,0,0,4.07-.83,7.65,7.65,0,0,0,2.75-2.29,9.52,9.52,0,0,0,1.58-3.53,20,20,0,0,0,.49-4.53v-2h-.12A8.2,8.2,0,0,1,229,40a11.85,11.85,0,0,1-5.42,1.29,13.15,13.15,0,0,1-5.8-1.2,12.11,12.11,0,0,1-4.13-3.24A13.78,13.78,0,0,1,211.12,32a19.49,19.49,0,0,1-.83-5.77,23,23,0,0,1,.68-5.42,14.88,14.88,0,0,1,2.3-5.05,12.61,12.61,0,0,1,4.24-3.73A13.28,13.28,0,0,1,224,10.61a10.87,10.87,0,0,1,5.16,1.24,8.63,8.63,0,0,1,3.67,3.7h.06V11.3h4.59V38.43q0,7.29-3.33,10.9M227.92,36a7.9,7.9,0,0,0,2.73-2.63,12.21,12.21,0,0,0,1.52-3.7,18.27,18.27,0,0,0,.49-4.13,16.62,16.62,0,0,0-.46-3.85,11,11,0,0,0-1.46-3.41,7.63,7.63,0,0,0-2.61-2.44,7.79,7.79,0,0,0-3.9-.92,8.46,8.46,0,0,0-4,.89,8,8,0,0,0-2.73,2.38,10.22,10.22,0,0,0-1.54,3.45,16.44,16.44,0,0,0-.49,4.07,20.13,20.13,0,0,0,.4,4,11.51,11.51,0,0,0,1.38,3.65A7.64,7.64,0,0,0,219.81,36a7.43,7.43,0,0,0,4,1,7.86,7.86,0,0,0,4.1-1"/><path class="cls-1" d="M249.41,11.3V16h.11q3-5.38,9.64-5.39a12.74,12.74,0,0,1,4.87.81,8,8,0,0,1,3.16,2.23,8.33,8.33,0,0,1,1.69,3.42,18,18,0,0,1,.49,4.38V41h-4.88V20.88a5.88,5.88,0,0,0-1.6-4.36,6,6,0,0,0-4.42-1.61,9.91,9.91,0,0,0-3.87.69,7.33,7.33,0,0,0-2.73,2,8.44,8.44,0,0,0-1.63,3,11.82,11.82,0,0,0-.55,3.7V41h-4.87V11.3Z"/><path class="cls-1" d="M280.44,34.33a5.14,5.14,0,0,0,1.81,1.78,8,8,0,0,0,2.52,1,14.55,14.55,0,0,0,2.9.28,17.17,17.17,0,0,0,2.41-.17,8.52,8.52,0,0,0,2.32-.63,4.33,4.33,0,0,0,1.75-1.35,3.58,3.58,0,0,0,.69-2.26,3.24,3.24,0,0,0-1.44-2.87,12.11,12.11,0,0,0-3.58-1.58c-1.44-.4-3-.76-4.68-1.09A23.34,23.34,0,0,1,280.47,26a9.65,9.65,0,0,1-3.59-2.49A6.51,6.51,0,0,1,275.45,19a7.09,7.09,0,0,1,1-3.84A8.24,8.24,0,0,1,279,12.59a12.06,12.06,0,0,1,3.56-1.49,16.65,16.65,0,0,1,3.93-.49,24,24,0,0,1,4.65.43,11,11,0,0,1,3.75,1.49,7.78,7.78,0,0,1,2.61,2.87,10.86,10.86,0,0,1,1.15,4.5H293.8a4.92,4.92,0,0,0-.74-2.38A5,5,0,0,0,291.45,16a7.23,7.23,0,0,0-2.15-.83,11.19,11.19,0,0,0-2.38-.26,13.91,13.91,0,0,0-2.21.18,7.17,7.17,0,0,0-2,.6,4,4,0,0,0-1.49,1.15,2.83,2.83,0,0,0-.58,1.86,2.74,2.74,0,0,0,.89,2.09,6.92,6.92,0,0,0,2.27,1.38,20.25,20.25,0,0,0,3.09.92l3.45.77c1.22.27,2.41.6,3.58,1a11.63,11.63,0,0,1,3.1,1.52,7.42,7.42,0,0,1,2.18,2.38A7,7,0,0,1,300,32.3a8.24,8.24,0,0,1-1.12,4.47A8.71,8.71,0,0,1,296,39.64a12.54,12.54,0,0,1-4.08,1.52,24.66,24.66,0,0,1-4.5.43,20.52,20.52,0,0,1-4.7-.52,11.58,11.58,0,0,1-4-1.69,8.5,8.5,0,0,1-2.75-3.1,10.61,10.61,0,0,1-1.15-4.67h4.87a5.46,5.46,0,0,0,.75,2.72"/></svg>